<svg width="55" height="46" viewBox="0 0 55 46" fill="none" xmlns="http://www.w3.org/2000/svg">
<path d="M54.8571 48.1429C54.8571 46.8929 53.8214 45.8571 52.5714 45.8571H2.28571C1.03571 45.8571 0 46.8929 0 48.1429V52.7143C0 53.9643 1.03571 55 2.28571 55H52.5714C53.8214 55 54.8571 53.9643 54.8571 52.7143V48.1429ZM54.8571 29.8571C54.8571 28.6071 53.8214 27.5714 52.5714 27.5714H2.28571C1.03571 27.5714 0 28.6071 0 29.8571V34.4286C0 35.6786 1.03571 36.7143 2.28571 36.7143H52.5714C53.8214 36.7143 54.8571 35.6786 54.8571 34.4286V29.8571ZM54.8571 11.5714C54.8571 10.3214 53.8214 9.28571 52.5714 9.28571H2.28571C1.03571 9.28571 0 10.3214 0 11.5714V16.1429C0 17.3929 1.03571 18.4286 2.28571 18.4286H52.5714C53.8214 18.4286 54.8571 17.3929 54.8571 16.1429V11.5714Z" transform="translate(0 -9)" fill="#493A3B"/>
</svg>
