<svg width="113" height="110" viewBox="0 0 113 110" fill="none" xmlns="http://www.w3.org/2000/svg">
<path d="M107.725 73.8583L97.4235 87.8938L87.1217 101.929C84.5144 105.481 78.833 108.501 74.4422 108.669L57.0929 109.33L39.7437 109.992C35.3529 110.16 29.4598 107.581 26.5918 104.238L15.2595 91.028L3.92725 77.8177C1.05927 74.4745 -0.607929 68.2395 0.206524 63.9031L3.42468 46.7684L6.64283 29.6337C7.45728 25.2972 11.2715 20.1007 15.1551 18.0365L30.5003 9.8801L45.8455 1.72374C49.7291 -0.340481 56.1526 -0.585507 60.1809 1.17691L76.0979 8.14077L92.0149 15.1046C96.0432 16.8671 100.239 21.758 101.379 26.02L105.882 42.8601L110.385 59.7003C111.524 63.9622 110.333 70.3062 107.725 73.8583Z" transform="translate(2.18317)" fill="url(#paint0_linear)"/>
<path d="M107.725 73.8583L97.4235 87.8938L87.1217 101.929C84.5144 105.481 78.833 108.501 74.4422 108.669L57.0929 109.33L39.7437 109.992C35.3529 110.16 29.4598 107.581 26.5918 104.238L15.2595 91.028L3.92725 77.8177C1.05927 74.4745 -0.607929 68.2395 0.206524 63.9031L3.42468 46.7684L6.64283 29.6337C7.45728 25.2972 11.2715 20.1007 15.1551 18.0365L30.5003 9.8801L45.8455 1.72374C49.7291 -0.340481 56.1526 -0.585507 60.1809 1.17691L76.0979 8.14077L92.0149 15.1046C96.0432 16.8671 100.239 21.758 101.379 26.02L105.882 42.8601L110.385 59.7003C111.524 63.9622 110.333 70.3062 107.725 73.8583Z" transform="translate(2.18317)" fill="#212121" fill-opacity="0.5" style="mix-blend-mode:multiply"/>
<path fill-rule="evenodd" clip-rule="evenodd" d="M61.4497 62.2324H65.1389V65.9376H61.4497V62.2324ZM92.9558 14.1473C92.9527 14.1424 89.8984 14.1406 89.8937 14.1473C90.0413 3.72169 85.4297 2.91856 80.2876 2.57887C76.6279 2.57887 74.193 3.74972 72.9829 6.09142C71.7728 8.43312 71.1678 11.5603 71.1678 15.4729L71.1967 35.7486L78.7522 35.8079L78.7817 38.4163H71.1967L71.0792 65.8718H67.3882L67.3894 38.4163H65.6186H60.4167L60.3946 37.1713C60.4536 36.7564 60.6012 36.4155 60.8373 36.1486C61.0734 35.8819 61.339 35.7486 61.6342 35.7486H67.3894L67.3605 14.9395C67.3605 10.7896 68.2902 7.26227 70.1496 4.35737C72.0089 1.45246 75.4473 -2.59672e-07 80.4647 -2.59672e-07C87.9907 -2.59672e-07 93.8647 3.15028 92.9558 14.1473ZM30.1593 30.8794C35.0646 26.1811 40.0347 23.8319 45.0695 23.8319C48.827 23.8319 52.021 25.5338 54.4363 27.4767C54.6259 27.6203 54.8035 27.7674 54.9772 27.9153C55.1521 28.0649 55.3231 28.2155 55.4812 28.3663C57.1099 29.7913 59.4535 32.1224 62.04 34.8593C60.785 34.5758 59.5598 35.7169 59.4968 36.8846L59.2362 65.8718H55.5452V45.1968C55.6447 33.5225 51.9561 27.6853 44.4792 27.6853C34.7396 27.6853 32.2895 34.1296 31.6685 41.6979L31.4931 54.3627H27.8021V45.1968C28.4428 33.5225 24.9509 27.6853 17.3264 27.6853C5.88981 27.6853 3.97141 36.2303 3.75005 45.1968L3.71874 65.9376H1.30762e-09V23.7808H3.71874L3.71316 30.8272C6.98428 26.1637 11.522 23.8319 17.3264 23.8319C23.3159 23.8319 27.8738 28.1563 30.1593 30.8794Z" transform="translate(0 23.5045)" fill="white"/>
<path d="M0.322917 0.629974C0.150459 0.635066 0.00520706 0.497523 0.000136307 0.324316C-0.00493445 0.151112 0.13202 0.00522921 0.304478 0.000136519C0.47694 -0.00495265 0.622193 0.132592 0.627264 0.3058C0.632335 0.479004 0.495375 0.624884 0.322917 0.629974Z" transform="translate(87.4495 41.9265)" fill="#FFC107"/>
<path d="M0.322916 0.629975C0.150455 0.635067 0.00521181 0.497518 0.00014105 0.324314C-0.00492971 0.151106 0.132019 0.00523026 0.304477 0.000137575C0.476939 -0.00495511 0.622193 0.132594 0.627263 0.305798C0.632334 0.479002 0.495375 0.624882 0.322916 0.629975Z" transform="translate(94.975 41.7043)" fill="#FFC107"/>
<path d="M0.322918 0.629975C0.150456 0.635068 0.00520841 0.497519 0.000137656 0.324315C-0.0049331 0.151107 0.132021 0.00522842 0.304479 0.00013573C0.476938 -0.00495696 0.622189 0.132592 0.62726 0.305796C0.632331 0.479004 0.495377 0.624883 0.322918 0.629975Z" transform="translate(88.3717 41.2689)" fill="#FFC107"/>
<path d="M0.322921 0.629974C0.150463 0.635067 0.0052057 0.497518 0.00013494 0.324314C-0.00493582 0.151106 0.132024 0.00523016 0.304482 0.000137474C0.476944 -0.00495521 0.622186 0.132594 0.627257 0.305798C0.632328 0.479006 0.495379 0.624882 0.322921 0.629974Z" transform="translate(94.0159 41.1022)" fill="#FFC107"/>
<path d="M0.322917 0.629979C0.150458 0.635068 0.00520318 0.497524 0.000135933 0.324316C-0.00493482 0.151112 0.132016 0.00522946 0.304477 0.000136779C0.476936 -0.00495239 0.622193 0.132592 0.627263 0.3058C0.632334 0.479004 0.495378 0.624886 0.322917 0.629979Z" transform="translate(86.7578 39.7406)" fill="#FFC107"/>
<path d="M0.32292 0.629975C0.150458 0.635067 0.00520508 0.497522 0.000134322 0.324314C-0.00493643 0.15111 0.132023 0.00523024 0.304481 0.000137555C0.476943 -0.00495513 0.622191 0.132593 0.627262 0.305801C0.632333 0.479005 0.495379 0.624885 0.32292 0.629975Z" transform="translate(88.0121 39.7036)" fill="#FFC107"/>
<path d="M0.322919 0.629975C0.150461 0.635068 0.00520405 0.497519 0.000133296 0.324314C-0.00493395 0.151107 0.132018 0.00523052 0.30448 0.000137834C0.476939 -0.00495485 0.622195 0.132591 0.627266 0.305796C0.632334 0.479003 0.495381 0.624882 0.322919 0.629975Z" transform="translate(94.2834 39.5184)" fill="#FFC107"/>
<path d="M0.32292 0.629975C0.150458 0.635068 0.00520096 0.497519 0.000133714 0.324315C-0.00493704 0.151107 0.132022 0.00522843 0.304481 0.000135741C0.476939 -0.00495695 0.622196 0.132592 0.627267 0.305796C0.632337 0.479 0.495378 0.624883 0.32292 0.629975Z" transform="translate(95.5376 39.4814)" fill="#FFC107"/>
<path d="M0.322919 0.629975C0.150461 0.635068 0.00520897 0.497519 0.000138211 0.324315C-0.00493255 0.15111 0.132021 0.0052306 0.30448 0.000137915C0.476942 -0.00495477 0.62219 0.132592 0.62726 0.305796C0.632331 0.479003 0.495377 0.624882 0.322919 0.629975Z" transform="translate(88.2796 38.1197)" fill="#FFC107"/>
<path d="M0.322921 0.629974C0.150463 0.635067 0.00520607 0.49752 0.000135313 0.324316C-0.00493194 0.151112 0.13202 0.00522966 0.304482 0.000136972C0.476941 -0.00495571 0.622198 0.132592 0.627268 0.3058C0.632336 0.479004 0.495383 0.624885 0.322921 0.629974Z" transform="translate(93.9237 37.953)" fill="#FFC107"/>
<path d="M0.322918 0.629975C0.15046 0.635068 0.00520821 0.497519 0.000137452 0.324314C-0.0049333 0.15111 0.132023 0.0052305 0.304484 0.000137815C0.476943 -0.00495487 0.622192 0.132593 0.62726 0.305801C0.63233 0.479005 0.49538 0.624886 0.322918 0.629975Z" transform="translate(87.3204 37.5176)" fill="#FFC107"/>
<path d="M0.322923 0.629976C0.150465 0.635068 0.0052076 0.497519 0.000136844 0.324315C-0.00493391 0.151108 0.132025 0.00522869 0.304484 0.000136C0.476946 -0.00495669 0.622188 0.132592 0.627259 0.305796C0.63233 0.479001 0.495381 0.624883 0.322923 0.629976Z" transform="translate(94.8459 37.2954)" fill="#FFC107"/>
<path d="M2.25982 5.17971C1.05103 5.2154 0.0358923 4.25409 0.000354901 3.04008C-0.0211064 2.30695 0.940527 0.418164 1.48004 0.000997156C1.69744 -0.00291921 2.68431 0.00634342 2.80799 0.000997156C3.37098 0.385615 4.36878 2.17733 4.39024 2.91046C4.42577 4.12448 3.46861 5.14401 2.25982 5.17971Z" transform="translate(89.2661 38.7293)" fill="#FFC107"/>
<path d="M1.18056 6.82715e-07C1.20516 0.723944 0.817533 1.31488 -2.62664e-06 1.49579" transform="translate(91.7014 41.6397)" stroke="#DBA400" stroke-linecap="round" stroke-linejoin="round"/>
<path d="M8.9381e-07 3.12256e-06H1.77083" transform="translate(90.5301 38.3743)" stroke="white" stroke-width="0.4" stroke-miterlimit="3" stroke-linecap="round"/>
<path d="M8.9381e-07 3.02246e-06H1.77083" transform="translate(90.5301 38.0038)" stroke="white" stroke-width="0.4" stroke-miterlimit="3" stroke-linecap="round"/>
<defs>
<linearGradient id="paint0_linear" x2="1" gradientUnits="userSpaceOnUse" gradientTransform="matrix(50.5 110 -110.817 50.875 85.2253 -25.4375)">
<stop stop-color="#455C7B"/>
<stop offset="1" stop-color="#685C79"/>
</linearGradient>
</defs>
</svg>
