<svg width="44" height="43" viewBox="0 0 44 43" fill="none" xmlns="http://www.w3.org/2000/svg">
<path d="M46.3571 47.3571C46.3571 46.4643 46 45.5714 45.3571 44.9286L34.8571 34.4286L45.3571 23.9286C46 23.2857 46.3571 22.3929 46.3571 21.5C46.3571 20.6071 46 19.7143 45.3571 19.0714L40.5 14.2143C39.8571 13.5714 38.9643 13.2143 38.0714 13.2143C37.1786 13.2143 36.2857 13.5714 35.6429 14.2143L25.1429 24.7143L14.6429 14.2143C14 13.5714 13.1071 13.2143 12.2143 13.2143C11.3214 13.2143 10.4286 13.5714 9.78571 14.2143L4.92857 19.0714C4.28571 19.7143 3.92857 20.6071 3.92857 21.5C3.92857 22.3929 4.28571 23.2857 4.92857 23.9286L15.4286 34.4286L4.92857 44.9286C4.28571 45.5714 3.92857 46.4643 3.92857 47.3571C3.92857 48.25 4.28571 49.1429 4.92857 49.7857L9.78571 54.6429C10.4286 55.2857 11.3214 55.6429 12.2143 55.6429C13.1071 55.6429 14 55.2857 14.6429 54.6429L25.1429 44.1429L35.6429 54.6429C36.2857 55.2857 37.1786 55.6429 38.0714 55.6429C38.9643 55.6429 39.8571 55.2857 40.5 54.6429L45.3571 49.7857C46 49.1429 46.3571 48.25 46.3571 47.3571Z" transform="translate(-3 -13)" fill="#D1A824"/>
<path d="M46.3571 47.3571C46.3571 46.4643 46 45.5714 45.3571 44.9286L34.8571 34.4286L45.3571 23.9286C46 23.2857 46.3571 22.3929 46.3571 21.5C46.3571 20.6071 46 19.7143 45.3571 19.0714L40.5 14.2143C39.8571 13.5714 38.9643 13.2143 38.0714 13.2143C37.1786 13.2143 36.2857 13.5714 35.6429 14.2143L25.1429 24.7143L14.6429 14.2143C14 13.5714 13.1071 13.2143 12.2143 13.2143C11.3214 13.2143 10.4286 13.5714 9.78571 14.2143L4.92857 19.0714C4.28571 19.7143 3.92857 20.6071 3.92857 21.5C3.92857 22.3929 4.28571 23.2857 4.92857 23.9286L15.4286 34.4286L4.92857 44.9286C4.28571 45.5714 3.92857 46.4643 3.92857 47.3571C3.92857 48.25 4.28571 49.1429 4.92857 49.7857L9.78571 54.6429C10.4286 55.2857 11.3214 55.6429 12.2143 55.6429C13.1071 55.6429 14 55.2857 14.6429 54.6429L25.1429 44.1429L35.6429 54.6429C36.2857 55.2857 37.1786 55.6429 38.0714 55.6429C38.9643 55.6429 39.8571 55.2857 40.5 54.6429L45.3571 49.7857C46 49.1429 46.3571 48.25 46.3571 47.3571Z" transform="translate(-3 -13)" fill="#D1A824"/>
</svg>
